<svg width="218" height="41" viewBox="0 0 218 41" fill="none" xmlns="http://www.w3.org/2000/svg">
<path d="M71.0162 21.5117V37.4815H66.2979V26.2301L71.0162 21.5117Z" fill="#42389E" stroke="#42389E" stroke-width="0.161168"/>
<path d="M26.2534 2.75928V20.4228L23.7127 22.7215L21.4141 14.8576V2.75928H26.2534Z" fill="#42389E" stroke="#42389E" stroke-width="0.161168"/>
<path d="M26.2535 30.2218V37.4808H21.4142V35.3031L16.2119 33.0044L35.2062 14.8569C40.8412 9.98849 52.2649 9.17076 56.9832 18.3654L53.1117 20.4221C48.5144 14.8569 42.3289 14.0382 36.1741 20.4221L26.2535 30.2218Z" fill="#42389E" stroke="#42389E" stroke-width="0.161168"/>
<path d="M76.7031 2.75915V8.08241C76.7031 8.08241 76.0982 6.9936 73.6786 6.63065C72.0655 6.38868 71.0169 7.35655 71.0169 7.35655V11.8329H76.7031V16.3092H71.0169V18.366C71.0169 18.366 59.8865 31.4321 54.0793 35.3036C48.2721 39.175 34.6011 38.4491 30.8506 28.8915L35.206 24.6571C35.206 32.521 43.3118 36.5134 51.2967 31.4321C59.2816 26.3508 66.2986 16.3092 66.2986 16.3092H63.153V11.8329H66.2986V6.0257C67.5373 1.65823 70.2717 1.44358 76.7031 2.75915Z" fill="#42389E" stroke="#42389E" stroke-width="0.161168"/>
<circle cx="13.913" cy="23.5678" r="12.1402" stroke="#42389E" stroke-width="3.5457"/>
<path d="M19.7207 29.6185L29.6413 20.1819V14.0117L19.9627 22.9645L19.7207 29.6185Z" fill="#FEFEFF"/>
<mask id="path-7-outside-1_1492_86405" maskUnits="userSpaceOnUse" x="90" y="4" width="115" height="15" fill="black">
<rect fill="white" x="90" y="4" width="115" height="15"/>
<path d="M91.242 18V5.4H95.454C96.918 5.4 98.124 5.664 99.072 6.192C100.032 6.708 100.74 7.44 101.196 8.388C101.664 9.324 101.898 10.428 101.898 11.7C101.898 12.972 101.664 14.082 101.196 15.03C100.74 15.966 100.038 16.698 99.09 17.226C98.142 17.742 96.93 18 95.454 18H91.242ZM93.672 15.912H95.328C96.36 15.912 97.17 15.744 97.758 15.408C98.358 15.072 98.784 14.592 99.036 13.968C99.288 13.332 99.414 12.576 99.414 11.7C99.414 10.812 99.288 10.056 99.036 9.432C98.784 8.796 98.358 8.31 97.758 7.974C97.17 7.638 96.36 7.47 95.328 7.47H93.672V15.912ZM103.232 18L107.84 5.4H110.594L115.184 18H112.61L109.208 8.172L105.788 18H103.232ZM105.266 15.138L105.914 13.248H112.322L112.952 15.138H105.266ZM117.739 18V5.4H122.437C123.457 5.4 124.297 5.574 124.957 5.922C125.617 6.27 126.109 6.738 126.433 7.326C126.757 7.902 126.919 8.544 126.919 9.252C126.919 9.924 126.763 10.554 126.451 11.142C126.139 11.718 125.647 12.186 124.975 12.546C124.315 12.894 123.463 13.068 122.419 13.068H120.169V18H117.739ZM124.273 18L121.681 12.456H124.309L127.045 18H124.273ZM120.169 11.304H122.293C123.025 11.304 123.565 11.124 123.913 10.764C124.261 10.404 124.435 9.93 124.435 9.342C124.435 8.754 124.261 8.292 123.913 7.956C123.577 7.608 123.037 7.434 122.293 7.434H120.169V11.304ZM132.929 18V7.362H129.239V5.4H139.013V7.362H135.341V18H132.929ZM146.865 18.216C145.605 18.216 144.519 17.946 143.607 17.406C142.707 16.854 142.011 16.092 141.519 15.12C141.039 14.136 140.799 13.002 140.799 11.718C140.799 10.434 141.039 9.3 141.519 8.316C142.011 7.332 142.707 6.564 143.607 6.012C144.519 5.46 145.605 5.184 146.865 5.184C148.389 5.184 149.637 5.562 150.609 6.318C151.581 7.074 152.187 8.142 152.427 9.522H149.781C149.625 8.85 149.295 8.328 148.791 7.956C148.299 7.572 147.651 7.38 146.847 7.38C146.103 7.38 145.461 7.56 144.921 7.92C144.393 8.268 143.985 8.766 143.697 9.414C143.409 10.05 143.265 10.818 143.265 11.718C143.265 12.606 143.409 13.374 143.697 14.022C143.985 14.67 144.393 15.168 144.921 15.516C145.461 15.864 146.103 16.038 146.847 16.038C147.651 16.038 148.299 15.864 148.791 15.516C149.283 15.156 149.607 14.658 149.763 14.022H152.427C152.187 15.33 151.581 16.356 150.609 17.1C149.637 17.844 148.389 18.216 146.865 18.216ZM155.402 18V5.4H157.832V16.11H163.358V18H155.402ZM171.028 18.216C169.804 18.216 168.724 17.94 167.788 17.388C166.852 16.836 166.12 16.074 165.592 15.102C165.064 14.118 164.8 12.984 164.8 11.7C164.8 10.416 165.064 9.288 165.592 8.316C166.12 7.332 166.852 6.564 167.788 6.012C168.724 5.46 169.804 5.184 171.028 5.184C172.264 5.184 173.35 5.46 174.286 6.012C175.222 6.564 175.948 7.332 176.464 8.316C176.992 9.288 177.256 10.416 177.256 11.7C177.256 12.984 176.992 14.118 176.464 15.102C175.948 16.074 175.222 16.836 174.286 17.388C173.35 17.94 172.264 18.216 171.028 18.216ZM171.028 16.038C171.796 16.038 172.456 15.864 173.008 15.516C173.572 15.156 174.01 14.652 174.322 14.004C174.634 13.356 174.79 12.588 174.79 11.7C174.79 10.8 174.634 10.032 174.322 9.396C174.01 8.748 173.572 8.25 173.008 7.902C172.456 7.554 171.796 7.38 171.028 7.38C170.272 7.38 169.612 7.554 169.048 7.902C168.484 8.25 168.046 8.748 167.734 9.396C167.422 10.032 167.266 10.8 167.266 11.7C167.266 12.588 167.422 13.356 167.734 14.004C168.046 14.652 168.484 15.156 169.048 15.516C169.612 15.864 170.272 16.038 171.028 16.038ZM185.108 18.216C184.184 18.216 183.344 18.03 182.588 17.658C181.832 17.286 181.232 16.728 180.788 15.984C180.344 15.24 180.122 14.292 180.122 13.14V5.4H182.552V13.158C182.552 13.782 182.654 14.31 182.858 14.742C183.062 15.162 183.356 15.474 183.74 15.678C184.136 15.882 184.604 15.984 185.144 15.984C185.696 15.984 186.164 15.882 186.548 15.678C186.944 15.474 187.244 15.162 187.448 14.742C187.652 14.31 187.754 13.782 187.754 13.158V5.4H190.184V13.14C190.184 14.292 189.956 15.24 189.5 15.984C189.044 16.728 188.426 17.286 187.646 17.658C186.878 18.03 186.032 18.216 185.108 18.216ZM193.452 18V5.4H197.664C199.128 5.4 200.334 5.664 201.282 6.192C202.242 6.708 202.95 7.44 203.406 8.388C203.874 9.324 204.108 10.428 204.108 11.7C204.108 12.972 203.874 14.082 203.406 15.03C202.95 15.966 202.248 16.698 201.3 17.226C200.352 17.742 199.14 18 197.664 18H193.452ZM195.882 15.912H197.538C198.57 15.912 199.38 15.744 199.968 15.408C200.568 15.072 200.994 14.592 201.246 13.968C201.498 13.332 201.624 12.576 201.624 11.7C201.624 10.812 201.498 10.056 201.246 9.432C200.994 8.796 200.568 8.31 199.968 7.974C199.38 7.638 198.57 7.47 197.538 7.47H195.882V15.912Z"/>
</mask>
<path d="M91.242 18V5.4H95.454C96.918 5.4 98.124 5.664 99.072 6.192C100.032 6.708 100.74 7.44 101.196 8.388C101.664 9.324 101.898 10.428 101.898 11.7C101.898 12.972 101.664 14.082 101.196 15.03C100.74 15.966 100.038 16.698 99.09 17.226C98.142 17.742 96.93 18 95.454 18H91.242ZM93.672 15.912H95.328C96.36 15.912 97.17 15.744 97.758 15.408C98.358 15.072 98.784 14.592 99.036 13.968C99.288 13.332 99.414 12.576 99.414 11.7C99.414 10.812 99.288 10.056 99.036 9.432C98.784 8.796 98.358 8.31 97.758 7.974C97.17 7.638 96.36 7.47 95.328 7.47H93.672V15.912ZM103.232 18L107.84 5.4H110.594L115.184 18H112.61L109.208 8.172L105.788 18H103.232ZM105.266 15.138L105.914 13.248H112.322L112.952 15.138H105.266ZM117.739 18V5.4H122.437C123.457 5.4 124.297 5.574 124.957 5.922C125.617 6.27 126.109 6.738 126.433 7.326C126.757 7.902 126.919 8.544 126.919 9.252C126.919 9.924 126.763 10.554 126.451 11.142C126.139 11.718 125.647 12.186 124.975 12.546C124.315 12.894 123.463 13.068 122.419 13.068H120.169V18H117.739ZM124.273 18L121.681 12.456H124.309L127.045 18H124.273ZM120.169 11.304H122.293C123.025 11.304 123.565 11.124 123.913 10.764C124.261 10.404 124.435 9.93 124.435 9.342C124.435 8.754 124.261 8.292 123.913 7.956C123.577 7.608 123.037 7.434 122.293 7.434H120.169V11.304ZM132.929 18V7.362H129.239V5.4H139.013V7.362H135.341V18H132.929ZM146.865 18.216C145.605 18.216 144.519 17.946 143.607 17.406C142.707 16.854 142.011 16.092 141.519 15.12C141.039 14.136 140.799 13.002 140.799 11.718C140.799 10.434 141.039 9.3 141.519 8.316C142.011 7.332 142.707 6.564 143.607 6.012C144.519 5.46 145.605 5.184 146.865 5.184C148.389 5.184 149.637 5.562 150.609 6.318C151.581 7.074 152.187 8.142 152.427 9.522H149.781C149.625 8.85 149.295 8.328 148.791 7.956C148.299 7.572 147.651 7.38 146.847 7.38C146.103 7.38 145.461 7.56 144.921 7.92C144.393 8.268 143.985 8.766 143.697 9.414C143.409 10.05 143.265 10.818 143.265 11.718C143.265 12.606 143.409 13.374 143.697 14.022C143.985 14.67 144.393 15.168 144.921 15.516C145.461 15.864 146.103 16.038 146.847 16.038C147.651 16.038 148.299 15.864 148.791 15.516C149.283 15.156 149.607 14.658 149.763 14.022H152.427C152.187 15.33 151.581 16.356 150.609 17.1C149.637 17.844 148.389 18.216 146.865 18.216ZM155.402 18V5.4H157.832V16.11H163.358V18H155.402ZM171.028 18.216C169.804 18.216 168.724 17.94 167.788 17.388C166.852 16.836 166.12 16.074 165.592 15.102C165.064 14.118 164.8 12.984 164.8 11.7C164.8 10.416 165.064 9.288 165.592 8.316C166.12 7.332 166.852 6.564 167.788 6.012C168.724 5.46 169.804 5.184 171.028 5.184C172.264 5.184 173.35 5.46 174.286 6.012C175.222 6.564 175.948 7.332 176.464 8.316C176.992 9.288 177.256 10.416 177.256 11.7C177.256 12.984 176.992 14.118 176.464 15.102C175.948 16.074 175.222 16.836 174.286 17.388C173.35 17.94 172.264 18.216 171.028 18.216ZM171.028 16.038C171.796 16.038 172.456 15.864 173.008 15.516C173.572 15.156 174.01 14.652 174.322 14.004C174.634 13.356 174.79 12.588 174.79 11.7C174.79 10.8 174.634 10.032 174.322 9.396C174.01 8.748 173.572 8.25 173.008 7.902C172.456 7.554 171.796 7.38 171.028 7.38C170.272 7.38 169.612 7.554 169.048 7.902C168.484 8.25 168.046 8.748 167.734 9.396C167.422 10.032 167.266 10.8 167.266 11.7C167.266 12.588 167.422 13.356 167.734 14.004C168.046 14.652 168.484 15.156 169.048 15.516C169.612 15.864 170.272 16.038 171.028 16.038ZM185.108 18.216C184.184 18.216 183.344 18.03 182.588 17.658C181.832 17.286 181.232 16.728 180.788 15.984C180.344 15.24 180.122 14.292 180.122 13.14V5.4H182.552V13.158C182.552 13.782 182.654 14.31 182.858 14.742C183.062 15.162 183.356 15.474 183.74 15.678C184.136 15.882 184.604 15.984 185.144 15.984C185.696 15.984 186.164 15.882 186.548 15.678C186.944 15.474 187.244 15.162 187.448 14.742C187.652 14.31 187.754 13.782 187.754 13.158V5.4H190.184V13.14C190.184 14.292 189.956 15.24 189.5 15.984C189.044 16.728 188.426 17.286 187.646 17.658C186.878 18.03 186.032 18.216 185.108 18.216ZM193.452 18V5.4H197.664C199.128 5.4 200.334 5.664 201.282 6.192C202.242 6.708 202.95 7.44 203.406 8.388C203.874 9.324 204.108 10.428 204.108 11.7C204.108 12.972 203.874 14.082 203.406 15.03C202.95 15.966 202.248 16.698 201.3 17.226C200.352 17.742 199.14 18 197.664 18H193.452ZM195.882 15.912H197.538C198.57 15.912 199.38 15.744 199.968 15.408C200.568 15.072 200.994 14.592 201.246 13.968C201.498 13.332 201.624 12.576 201.624 11.7C201.624 10.812 201.498 10.056 201.246 9.432C200.994 8.796 200.568 8.31 199.968 7.974C199.38 7.638 198.57 7.47 197.538 7.47H195.882V15.912Z" fill="#42389E"/>
<path d="M91.242 18H90.9262V18.3158H91.242V18ZM91.242 5.4V5.08416H90.9262V5.4H91.242ZM99.072 6.192L98.9183 6.46796L98.9225 6.4702L99.072 6.192ZM101.196 8.388L100.911 8.52492L100.914 8.52925L101.196 8.388ZM101.196 15.03L100.913 14.8902L100.912 14.8917L101.196 15.03ZM99.09 17.226L99.241 17.5034L99.2437 17.5019L99.09 17.226ZM93.672 15.912H93.3562V16.2278H93.672V15.912ZM97.758 15.408L97.6037 15.1324L97.6013 15.1338L97.758 15.408ZM99.036 13.968L99.3289 14.0863L99.3296 14.0843L99.036 13.968ZM99.036 9.432L98.7424 9.54835L98.7431 9.55027L99.036 9.432ZM97.758 7.974L97.6013 8.24823L97.6037 8.24957L97.758 7.974ZM93.672 7.47V7.15416H93.3562V7.47H93.672ZM91.242 18H91.5578V5.4H91.242H90.9262V18H91.242ZM91.242 5.4V5.71584H95.454V5.4V5.08416H91.242V5.4ZM95.454 5.4V5.71584C96.8822 5.71584 98.0309 5.97366 98.9183 6.46793L99.072 6.192L99.2257 5.91607C98.2171 5.35434 96.9538 5.08416 95.454 5.08416V5.4ZM99.072 6.192L98.9225 6.4702C99.8259 6.95579 100.485 7.63938 100.911 8.52491L101.196 8.388L101.481 8.25109C100.995 7.24062 100.238 6.46021 99.2215 5.9138L99.072 6.192ZM101.196 8.388L100.914 8.52925C101.355 9.41294 101.582 10.4666 101.582 11.7H101.898H102.214C102.214 10.3894 101.973 9.23506 101.478 8.24675L101.196 8.388ZM101.898 11.7H101.582C101.582 12.9332 101.355 13.9936 100.913 14.8902L101.196 15.03L101.479 15.1698C101.973 14.1704 102.214 13.0108 102.214 11.7H101.898ZM101.196 15.03L100.912 14.8917C100.486 15.767 99.8304 16.4521 98.9363 16.9501L99.09 17.226L99.2437 17.5019C100.246 16.9439 100.994 16.165 101.48 15.1683L101.196 15.03ZM99.09 17.226L98.939 16.9486C98.0512 17.4318 96.8957 17.6842 95.454 17.6842V18V18.3158C96.9643 18.3158 98.2328 18.0522 99.241 17.5034L99.09 17.226ZM95.454 18V17.6842H91.242V18V18.3158H95.454V18ZM93.672 15.912V16.2278H95.328V15.912V15.5962H93.672V15.912ZM95.328 15.912V16.2278C96.3885 16.2278 97.2603 16.0562 97.9147 15.6822L97.758 15.408L97.6013 15.1338C97.0797 15.4318 96.3315 15.5962 95.328 15.5962V15.912ZM97.758 15.408L97.9123 15.6836C98.5736 15.3133 99.0493 14.7785 99.3289 14.0863L99.036 13.968L98.7431 13.8497C98.5187 14.4055 98.1424 14.8307 97.6037 15.1324L97.758 15.408ZM99.036 13.968L99.3296 14.0843C99.5998 13.4025 99.7298 12.6052 99.7298 11.7H99.414H99.0982C99.0982 12.5468 98.9762 13.2615 98.7424 13.8517L99.036 13.968ZM99.414 11.7H99.7298C99.7298 10.7837 99.6 9.98522 99.3289 9.31373L99.036 9.432L98.7431 9.55027C98.976 10.1268 99.0982 10.8403 99.0982 11.7H99.414ZM99.036 9.432L99.3296 9.31566C99.0507 8.61176 98.5753 8.06971 97.9123 7.69843L97.758 7.974L97.6037 8.24957C98.1407 8.55029 98.5173 8.98024 98.7424 9.54834L99.036 9.432ZM97.758 7.974L97.9147 7.69978C97.2603 7.32584 96.3885 7.15416 95.328 7.15416V7.47V7.78584C96.3315 7.78584 97.0797 7.95016 97.6013 8.24822L97.758 7.974ZM95.328 7.47V7.15416H93.672V7.47V7.78584H95.328V7.47ZM93.672 7.47H93.3562V15.912H93.672H93.9878V7.47H93.672ZM103.232 18L102.935 17.8915L102.78 18.3158H103.232V18ZM107.84 5.4V5.08416H107.619L107.543 5.29152L107.84 5.4ZM110.594 5.4L110.89 5.29189L110.815 5.08416H110.594V5.4ZM115.184 18V18.3158H115.635L115.48 17.8919L115.184 18ZM112.61 18L112.311 18.1033L112.385 18.3158H112.61V18ZM109.208 8.172L109.506 8.06869L109.208 7.20874L108.909 8.0682L109.208 8.172ZM105.788 18V18.3158H106.012L106.086 18.1038L105.788 18ZM105.266 15.138L104.967 15.0356L104.823 15.4538H105.266V15.138ZM105.914 13.248V12.9322H105.688L105.615 13.1456L105.914 13.248ZM112.322 13.248L112.621 13.1481L112.549 12.9322H112.322V13.248ZM112.952 15.138V15.4538H113.39L113.251 15.0381L112.952 15.138ZM103.232 18L103.528 18.1085L108.136 5.50848L107.84 5.4L107.543 5.29152L102.935 17.8915L103.232 18ZM107.84 5.4V5.71584H110.594V5.4V5.08416H107.84V5.4ZM110.594 5.4L110.297 5.5081L114.887 18.1081L115.184 18L115.48 17.8919L110.89 5.29189L110.594 5.4ZM115.184 18V17.6842H112.61V18V18.3158H115.184V18ZM112.61 18L112.908 17.8967L109.506 8.06869L109.208 8.172L108.909 8.27531L112.311 18.1033L112.61 18ZM109.208 8.172L108.909 8.0682L105.489 17.8962L105.788 18L106.086 18.1038L109.506 8.2758L109.208 8.172ZM105.788 18V17.6842H103.232V18V18.3158H105.788V18ZM105.266 15.138L105.564 15.2404L106.212 13.3504L105.914 13.248L105.615 13.1456L104.967 15.0356L105.266 15.138ZM105.914 13.248V13.5638H112.322V13.248V12.9322H105.914V13.248ZM112.322 13.248L112.022 13.3479L112.652 15.2379L112.952 15.138L113.251 15.0381L112.621 13.1481L112.322 13.248ZM112.952 15.138V14.8222H105.266V15.138V15.4538H112.952V15.138ZM117.739 18H117.423V18.3158H117.739V18ZM117.739 5.4V5.08416H117.423V5.4H117.739ZM124.957 5.922L124.81 6.20138L124.957 5.922ZM126.433 7.326L126.157 7.47843L126.158 7.48084L126.433 7.326ZM126.451 11.142L126.729 11.2924L126.73 11.29L126.451 11.142ZM124.975 12.546L125.123 12.8254L125.124 12.8244L124.975 12.546ZM120.169 13.068V12.7522H119.853V13.068H120.169ZM120.169 18V18.3158H120.485V18H120.169ZM124.273 18L123.987 18.1338L124.072 18.3158H124.273V18ZM121.681 12.456V12.1402H121.185L121.395 12.5898L121.681 12.456ZM124.309 12.456L124.592 12.3162L124.506 12.1402H124.309V12.456ZM127.045 18V18.3158H127.553L127.328 17.8602L127.045 18ZM120.169 11.304H119.853V11.6198H120.169V11.304ZM123.913 10.764L124.14 10.9835L123.913 10.764ZM123.913 7.956L123.686 8.17551L123.694 8.18321L123.913 7.956ZM120.169 7.434V7.11816H119.853V7.434H120.169ZM117.739 18H118.055V5.4H117.739H117.423V18H117.739ZM117.739 5.4V5.71584H122.437V5.4V5.08416H117.739V5.4ZM122.437 5.4V5.71584C123.424 5.71584 124.209 5.88448 124.81 6.20138L124.957 5.922L125.105 5.64262C124.386 5.26352 123.491 5.08416 122.437 5.08416V5.4ZM124.957 5.922L124.81 6.20138C125.422 6.52392 125.866 6.95039 126.157 7.47842L126.433 7.326L126.71 7.17357C126.353 6.52561 125.813 6.01607 125.105 5.64262L124.957 5.922ZM126.433 7.326L126.158 7.48084C126.454 8.0062 126.603 8.59425 126.603 9.252H126.919H127.235C127.235 8.49375 127.061 7.79779 126.709 7.17116L126.433 7.326ZM126.919 9.252H126.603C126.603 9.8729 126.46 10.452 126.172 10.994L126.451 11.142L126.73 11.29C127.067 10.656 127.235 9.9751 127.235 9.252H126.919ZM126.451 11.142L126.174 10.9916C125.896 11.5048 125.453 11.9319 124.826 12.2676L124.975 12.546L125.124 12.8244C125.842 12.4401 126.383 11.9312 126.729 11.2924L126.451 11.142ZM124.975 12.546L124.828 12.2666C124.228 12.583 123.431 12.7522 122.419 12.7522V13.068V13.3838C123.495 13.3838 124.403 13.205 125.123 12.8254L124.975 12.546ZM122.419 13.068V12.7522H120.169V13.068V13.3838H122.419V13.068ZM120.169 13.068H119.853V18H120.169H120.485V13.068H120.169ZM120.169 18V17.6842H117.739V18V18.3158H120.169V18ZM124.273 18L124.559 17.8662L121.967 12.3222L121.681 12.456L121.395 12.5898L123.987 18.1338L124.273 18ZM121.681 12.456V12.7718H124.309V12.456V12.1402H121.681V12.456ZM124.309 12.456L124.026 12.5958L126.762 18.1398L127.045 18L127.328 17.8602L124.592 12.3162L124.309 12.456ZM127.045 18V17.6842H124.273V18V18.3158H127.045V18ZM120.169 11.304V11.6198H122.293V11.304V10.9882H120.169V11.304ZM122.293 11.304V11.6198C123.071 11.6198 123.71 11.4287 124.14 10.9835L123.913 10.764L123.686 10.5445C123.421 10.8193 122.979 10.9882 122.293 10.9882V11.304ZM123.913 10.764L124.14 10.9835C124.555 10.5545 124.751 9.9966 124.751 9.342H124.435H124.119C124.119 9.8634 123.967 10.2535 123.686 10.5445L123.913 10.764ZM124.435 9.342H124.751C124.751 8.68811 124.555 8.13678 124.133 7.72879L123.913 7.956L123.694 8.18321C123.967 8.44722 124.119 8.81989 124.119 9.342H124.435ZM123.913 7.956L124.14 7.73662C123.719 7.3006 123.078 7.11816 122.293 7.11816V7.434V7.74984C122.997 7.74984 123.435 7.9154 123.686 8.17538L123.913 7.956ZM122.293 7.434V7.11816H120.169V7.434V7.74984H122.293V7.434ZM120.169 7.434H119.853V11.304H120.169H120.485V7.434H120.169ZM132.929 18H132.613V18.3158H132.929V18ZM132.929 7.362H133.245V7.04616H132.929V7.362ZM129.239 7.362H128.923V7.67784H129.239V7.362ZM129.239 5.4V5.08416H128.923V5.4H129.239ZM139.013 5.4H139.329V5.08416H139.013V5.4ZM139.013 7.362V7.67784H139.329V7.362H139.013ZM135.341 7.362V7.04616H135.025V7.362H135.341ZM135.341 18V18.3158H135.657V18H135.341ZM132.929 18H133.245V7.362H132.929H132.613V18H132.929ZM132.929 7.362V7.04616H129.239V7.362V7.67784H132.929V7.362ZM129.239 7.362H129.555V5.4H129.239H128.923V7.362H129.239ZM129.239 5.4V5.71584H139.013V5.4V5.08416H129.239V5.4ZM139.013 5.4H138.697V7.362H139.013H139.329V5.4H139.013ZM139.013 7.362V7.04616H135.341V7.362V7.67784H139.013V7.362ZM135.341 7.362H135.025V18H135.341H135.657V7.362H135.341ZM135.341 18V17.6842H132.929V18V18.3158H135.341V18ZM143.607 17.406L143.442 17.6753L143.446 17.6778L143.607 17.406ZM141.519 15.12L141.235 15.2585L141.237 15.2626L141.519 15.12ZM141.519 8.316L141.237 8.17475L141.235 8.17753L141.519 8.316ZM143.607 6.012L143.444 5.7418L143.442 5.74277L143.607 6.012ZM150.609 6.318L150.803 6.06869L150.609 6.318ZM152.427 9.522V9.83784H152.803L152.738 9.46788L152.427 9.522ZM149.781 9.522L149.473 9.59342L149.53 9.83784H149.781V9.522ZM148.791 7.956L148.597 8.20507L148.604 8.21011L148.791 7.956ZM144.921 7.92L145.095 8.18371L145.096 8.18279L144.921 7.92ZM143.697 9.414L143.985 9.54429L143.986 9.54227L143.697 9.414ZM143.697 14.022L143.986 13.8937L143.697 14.022ZM144.921 15.516L144.747 15.7797L144.75 15.7815L144.921 15.516ZM148.791 15.516L148.973 15.7739L148.978 15.7709L148.791 15.516ZM149.763 14.022V13.7062H149.515L149.456 13.9468L149.763 14.022ZM152.427 14.022L152.738 14.079L152.806 13.7062H152.427V14.022ZM150.609 17.1L150.417 16.8492V16.8492L150.609 17.1ZM146.865 18.216V17.9002C145.651 17.9002 144.623 17.6404 143.768 17.1342L143.607 17.406L143.446 17.6778C144.415 18.2516 145.559 18.5318 146.865 18.5318V18.216ZM143.607 17.406L143.772 17.1368C142.924 16.6164 142.267 15.8989 141.801 14.9774L141.519 15.12L141.237 15.2626C141.755 16.2851 142.49 17.0916 143.442 17.6752L143.607 17.406ZM141.519 15.12L141.803 14.9815C141.347 14.0475 141.115 12.9623 141.115 11.718H140.799H140.483C140.483 13.0417 140.731 14.2245 141.235 15.2585L141.519 15.12ZM140.799 11.718H141.115C141.115 10.4737 141.347 9.38849 141.803 8.45447L141.519 8.316L141.235 8.17753C140.731 9.2115 140.483 10.3943 140.483 11.718H140.799ZM141.519 8.316L141.802 8.45725C142.268 7.52371 142.925 6.80104 143.772 6.28123L143.607 6.012L143.442 5.74277C142.489 6.32696 141.754 7.14029 141.237 8.17475L141.519 8.316ZM143.607 6.012L143.771 6.2822C144.625 5.7651 145.652 5.49984 146.865 5.49984V5.184V4.86816C145.558 4.86816 144.413 5.1549 143.444 5.7418L143.607 6.012ZM146.865 5.184V5.49984C148.336 5.49984 149.511 5.86385 150.415 6.56731L150.609 6.318L150.803 6.06869C149.763 5.26015 148.442 4.86816 146.865 4.86816V5.184ZM150.609 6.318L150.415 6.56731C151.317 7.26842 151.887 8.26209 152.116 9.57612L152.427 9.522L152.738 9.46788C152.487 8.02191 151.846 6.87958 150.803 6.06869L150.609 6.318ZM152.427 9.522V9.20616H149.781V9.522V9.83784H152.427V9.522ZM149.781 9.522L150.089 9.45058C149.918 8.71329 149.549 8.12317 148.979 7.70189L148.791 7.956L148.604 8.21011C149.041 8.53283 149.333 8.98671 149.473 9.59342L149.781 9.522ZM148.791 7.956L148.985 7.70702C148.424 7.26858 147.701 7.06416 146.847 7.06416V7.38V7.69584C147.601 7.69584 148.175 7.87542 148.597 8.20498L148.791 7.956ZM146.847 7.38V7.06416C146.05 7.06416 145.345 7.25775 144.746 7.65721L144.921 7.92L145.096 8.18279C145.577 7.86225 146.156 7.69584 146.847 7.69584V7.38ZM144.921 7.92L144.747 7.65629C144.163 8.04146 143.718 8.58944 143.408 9.28573L143.697 9.414L143.986 9.54227C144.252 8.94256 144.623 8.49454 145.095 8.18371L144.921 7.92ZM143.697 9.414L143.409 9.28371C143.098 9.97067 142.949 10.7855 142.949 11.718H143.265H143.581C143.581 10.8505 143.72 10.1293 143.985 9.54428L143.697 9.414ZM143.265 11.718H142.949C142.949 12.6394 143.099 13.4531 143.408 14.1503L143.697 14.022L143.986 13.8937C143.72 13.2949 143.581 12.5726 143.581 11.718H143.265ZM143.697 14.022L143.408 14.1503C143.718 14.8466 144.163 15.3945 144.747 15.7797L144.921 15.516L145.095 15.2523C144.623 14.9415 144.252 14.4934 143.986 13.8937L143.697 14.022ZM144.921 15.516L144.75 15.7815C145.349 16.1673 146.052 16.3538 146.847 16.3538V16.038V15.7222C146.154 15.7222 145.574 15.5607 145.092 15.2505L144.921 15.516ZM146.847 16.038V16.3538C147.695 16.3538 148.413 16.1704 148.973 15.7739L148.791 15.516L148.609 15.2581C148.185 15.5576 147.607 15.7222 146.847 15.7222V16.038ZM148.791 15.516L148.978 15.7709C149.534 15.3636 149.898 14.7996 150.07 14.0972L149.763 14.022L149.456 13.9468C149.317 14.5164 149.032 14.9484 148.605 15.2611L148.791 15.516ZM149.763 14.022V14.3378H152.427V14.022V13.7062H149.763V14.022ZM152.427 14.022L152.116 13.965C151.889 15.2031 151.321 16.1571 150.417 16.8492L150.609 17.1L150.801 17.3508C151.841 16.5549 152.485 15.4569 152.738 14.079L152.427 14.022ZM150.609 17.1L150.417 16.8492C149.513 17.5416 148.337 17.9002 146.865 17.9002V18.216V18.5318C148.441 18.5318 149.762 18.1464 150.801 17.3508L150.609 17.1ZM155.402 18H155.086V18.3158H155.402V18ZM155.402 5.4V5.08416H155.086V5.4H155.402ZM157.832 5.4H158.148V5.08416H157.832V5.4ZM157.832 16.11H157.516V16.4258H157.832V16.11ZM163.358 16.11H163.674V15.7942H163.358V16.11ZM163.358 18V18.3158H163.674V18H163.358ZM155.402 18H155.718V5.4H155.402H155.086V18H155.402ZM155.402 5.4V5.71584H157.832V5.4V5.08416H155.402V5.4ZM157.832 5.4H157.516V16.11H157.832H158.148V5.4H157.832ZM157.832 16.11V16.4258H163.358V16.11V15.7942H157.832V16.11ZM163.358 16.11H163.042V18H163.358H163.674V16.11H163.358ZM163.358 18V17.6842H155.402V18V18.3158H163.358V18ZM167.788 17.388L167.628 17.6601L167.788 17.388ZM165.592 15.102L165.314 15.2513L165.315 15.2528L165.592 15.102ZM165.592 8.316L165.87 8.46676L165.871 8.46533L165.592 8.316ZM174.286 6.012L174.126 6.28405L174.286 6.012ZM176.464 8.316L176.185 8.46269L176.187 8.46676L176.464 8.316ZM176.464 15.102L176.186 14.9527L176.185 14.9539L176.464 15.102ZM174.286 17.388L174.126 17.1159V17.1159L174.286 17.388ZM173.008 15.516L173.177 15.7832L173.178 15.7822L173.008 15.516ZM174.322 14.004L174.607 14.141V14.141L174.322 14.004ZM174.322 9.396L174.038 9.53302L174.039 9.5351L174.322 9.396ZM173.008 7.902L172.84 8.16919L172.842 8.17079L173.008 7.902ZM169.048 7.902L168.882 7.63321V7.63321L169.048 7.902ZM167.734 9.396L168.018 9.53511L168.019 9.53302L167.734 9.396ZM167.734 14.004L167.45 14.141L167.734 14.004ZM169.048 15.516L168.878 15.7823L168.882 15.7848L169.048 15.516ZM171.028 18.216V17.9002C169.853 17.9002 168.83 17.6358 167.949 17.1159L167.788 17.388L167.628 17.6601C168.618 18.2442 169.755 18.5318 171.028 18.5318V18.216ZM167.788 17.388L167.949 17.1159C167.063 16.5936 166.371 15.8739 165.87 14.9512L165.592 15.102L165.315 15.2528C165.87 16.2741 166.642 17.0784 167.628 17.6601L167.788 17.388ZM165.592 15.102L165.871 14.9527C165.371 14.0211 165.116 12.9398 165.116 11.7H164.8H164.484C164.484 13.0282 164.758 14.2149 165.314 15.2513L165.592 15.102ZM164.8 11.7H165.116C165.116 10.4601 165.371 9.38554 165.87 8.46676L165.592 8.316L165.315 8.16524C164.758 9.19046 164.484 10.3719 164.484 11.7H164.8ZM165.592 8.316L165.871 8.46533C166.372 7.53077 167.064 6.80586 167.949 6.28405L167.788 6.012L167.628 5.73995C166.641 6.32214 165.868 7.13323 165.314 8.16667L165.592 8.316ZM167.788 6.012L167.949 6.28405C168.83 5.76421 169.853 5.49984 171.028 5.49984V5.184V4.86816C169.755 4.86816 168.618 5.15579 167.628 5.73995L167.788 6.012ZM171.028 5.184V5.49984C172.216 5.49984 173.245 5.76448 174.126 6.28405L174.286 6.012L174.447 5.73995C173.456 5.15552 172.313 4.86816 171.028 4.86816V5.184ZM174.286 6.012L174.126 6.28405C175.01 6.80548 175.695 7.52952 176.185 8.46268L176.464 8.316L176.744 8.16932C176.201 7.13448 175.435 6.32252 174.447 5.73995L174.286 6.012ZM176.464 8.316L176.187 8.46676C176.686 9.38554 176.94 10.4601 176.94 11.7H177.256H177.572C177.572 10.3719 177.299 9.19046 176.742 8.16524L176.464 8.316ZM177.256 11.7H176.94C176.94 12.9398 176.686 14.0211 176.186 14.9527L176.464 15.102L176.743 15.2513C177.299 14.2149 177.572 13.0282 177.572 11.7H177.256ZM176.464 15.102L176.185 14.9539C175.696 15.8751 175.011 16.5939 174.126 17.1159L174.286 17.388L174.447 17.6601C175.434 17.0781 176.2 16.2729 176.743 15.2501L176.464 15.102ZM174.286 17.388L174.126 17.1159C173.245 17.6355 172.216 17.9002 171.028 17.9002V18.216V18.5318C172.313 18.5318 173.456 18.2445 174.447 17.6601L174.286 17.388ZM171.028 16.038V16.3538C171.845 16.3538 172.566 16.1682 173.177 15.7832L173.008 15.516L172.84 15.2488C172.347 15.5598 171.747 15.7222 171.028 15.7222V16.038ZM173.008 15.516L173.178 15.7822C173.795 15.3883 174.271 14.8378 174.607 14.141L174.322 14.004L174.038 13.867C173.749 14.4662 173.349 14.9237 172.838 15.2498L173.008 15.516ZM174.322 14.004L174.607 14.141C174.944 13.4414 175.106 12.6245 175.106 11.7H174.79H174.474C174.474 12.5515 174.325 13.2706 174.038 13.867L174.322 14.004ZM174.79 11.7H175.106C175.106 10.7644 174.944 9.94628 174.606 9.2569L174.322 9.396L174.039 9.5351C174.325 10.1177 174.474 10.8356 174.474 11.7H174.79ZM174.322 9.396L174.607 9.25898C174.271 8.56145 173.794 8.01559 173.174 7.63321L173.008 7.902L172.842 8.17079C173.351 8.48441 173.75 8.93456 174.038 9.53302L174.322 9.396ZM173.008 7.902L173.177 7.63482C172.566 7.24977 171.845 7.06416 171.028 7.06416V7.38V7.69584C171.747 7.69584 172.347 7.85823 172.84 8.16917L173.008 7.902ZM171.028 7.38V7.06416C170.222 7.06416 169.503 7.25031 168.882 7.63321L169.048 7.902L169.214 8.17079C169.722 7.85769 170.322 7.69584 171.028 7.69584V7.38ZM169.048 7.902L168.882 7.63321C168.263 8.01559 167.786 8.56145 167.45 9.25898L167.734 9.396L168.019 9.53302C168.307 8.93456 168.706 8.48441 169.214 8.17079L169.048 7.902ZM167.734 9.396L167.451 9.2569C167.113 9.94628 166.95 10.7644 166.95 11.7H167.266H167.582C167.582 10.8356 167.732 10.1177 168.018 9.5351L167.734 9.396ZM167.266 11.7H166.95C166.95 12.6245 167.113 13.4414 167.45 14.141L167.734 14.004L168.019 13.867C167.732 13.2706 167.582 12.5515 167.582 11.7H167.266ZM167.734 14.004L167.45 14.141C167.785 14.8378 168.261 15.3883 168.878 15.7822L169.048 15.516L169.218 15.2498C168.707 14.9237 168.307 14.4662 168.019 13.867L167.734 14.004ZM169.048 15.516L168.882 15.7848C169.503 16.1677 170.222 16.3538 171.028 16.3538V16.038V15.7222C170.322 15.7222 169.722 15.5603 169.214 15.2472L169.048 15.516ZM182.588 17.658L182.448 17.9414L182.588 17.658ZM180.788 15.984L180.516 16.1459L180.788 15.984ZM180.122 5.4V5.08416H179.806V5.4H180.122ZM182.552 5.4H182.867V5.08416H182.552V5.4ZM182.858 14.742L182.572 14.8769L182.573 14.88L182.858 14.742ZM183.74 15.678L183.591 15.9569L183.595 15.9588L183.74 15.678ZM186.548 15.678L186.403 15.3972L186.399 15.3991L186.548 15.678ZM187.448 14.742L187.732 14.88L187.733 14.8769L187.448 14.742ZM187.754 5.4V5.08416H187.438V5.4H187.754ZM190.184 5.4H190.499V5.08416H190.184V5.4ZM189.5 15.984L189.769 16.149L189.5 15.984ZM187.646 17.658L187.51 17.3729L187.508 17.3738L187.646 17.658ZM185.108 18.216V17.9002C184.227 17.9002 183.436 17.7233 182.727 17.3746L182.588 17.658L182.448 17.9414C183.252 18.3367 184.14 18.5318 185.108 18.5318V18.216ZM182.588 17.658L182.727 17.3746C182.027 17.0303 181.472 16.5153 181.059 15.8221L180.788 15.984L180.516 16.1459C180.991 16.9407 181.636 17.5417 182.448 17.9414L182.588 17.658ZM180.788 15.984L181.059 15.8221C180.652 15.1407 180.437 14.2532 180.437 13.14H180.122H179.806C179.806 14.3308 180.035 15.3393 180.516 16.1459L180.788 15.984ZM180.122 13.14H180.437V5.4H180.122H179.806V13.14H180.122ZM180.122 5.4V5.71584H182.552V5.4V5.08416H180.122V5.4ZM182.552 5.4H182.236V13.158H182.552H182.867V5.4H182.552ZM182.552 13.158H182.236C182.236 13.8149 182.343 14.3919 182.572 14.8769L182.858 14.742L183.143 14.6071C182.964 14.2281 182.867 13.7491 182.867 13.158H182.552ZM182.858 14.742L182.573 14.88C182.804 15.3555 183.144 15.7192 183.591 15.9569L183.74 15.678L183.888 15.3991C183.567 15.2288 183.319 14.9685 183.142 14.604L182.858 14.742ZM183.74 15.678L183.595 15.9588C184.044 16.1902 184.564 16.2998 185.144 16.2998V15.984V15.6682C184.643 15.6682 184.227 15.5738 183.884 15.3972L183.74 15.678ZM185.144 15.984V16.2998C185.734 16.2998 186.255 16.1908 186.696 15.9569L186.548 15.678L186.399 15.3991C186.072 15.5732 185.657 15.6682 185.144 15.6682V15.984ZM186.548 15.678L186.692 15.9588C187.152 15.7219 187.499 15.3582 187.732 14.88L187.448 14.742L187.163 14.604C186.988 14.9658 186.735 15.2261 186.403 15.3972L186.548 15.678ZM187.448 14.742L187.733 14.8769C187.962 14.3919 188.069 13.8149 188.069 13.158H187.754H187.438C187.438 13.7491 187.341 14.2281 187.162 14.6071L187.448 14.742ZM187.754 13.158H188.069V5.4H187.754H187.438V13.158H187.754ZM187.754 5.4V5.71584H190.184V5.4V5.08416H187.754V5.4ZM190.184 5.4H189.868V13.14H190.184H190.499V5.4H190.184ZM190.184 13.14H189.868C189.868 14.2519 189.647 15.1381 189.23 15.819L189.5 15.984L189.769 16.149C190.264 15.3419 190.499 14.3321 190.499 13.14H190.184ZM189.5 15.984L189.23 15.819C188.806 16.5114 188.234 17.0275 187.51 17.3729L187.646 17.658L187.781 17.9431C188.617 17.5445 189.281 16.9446 189.769 16.149L189.5 15.984ZM187.646 17.658L187.508 17.3738C186.786 17.7233 185.988 17.9002 185.108 17.9002V18.216V18.5318C186.075 18.5318 186.969 18.3367 187.783 17.9422L187.646 17.658ZM193.452 18H193.136V18.3158H193.452V18ZM193.452 5.4V5.08416H193.136V5.4H193.452ZM201.282 6.192L201.128 6.46796L201.132 6.4702L201.282 6.192ZM203.406 8.388L203.121 8.52492L203.123 8.52925L203.406 8.388ZM203.406 15.03L203.123 14.8902L203.122 14.8917L203.406 15.03ZM201.3 17.226L201.451 17.5034L201.453 17.5019L201.3 17.226ZM195.882 15.912H195.566V16.2278H195.882V15.912ZM199.968 15.408L199.813 15.1324L199.811 15.1338L199.968 15.408ZM201.246 13.968L201.539 14.0863L201.539 14.0843L201.246 13.968ZM201.246 9.432L200.952 9.54835L200.953 9.55027L201.246 9.432ZM199.968 7.974L199.811 8.24823L199.813 8.24957L199.968 7.974ZM195.882 7.47V7.15416H195.566V7.47H195.882ZM193.452 18H193.768V5.4H193.452H193.136V18H193.452ZM193.452 5.4V5.71584H197.664V5.4V5.08416H193.452V5.4ZM197.664 5.4V5.71584C199.092 5.71584 200.241 5.97366 201.128 6.46793L201.282 6.192L201.435 5.91607C200.427 5.35434 199.164 5.08416 197.664 5.08416V5.4ZM201.282 6.192L201.132 6.4702C202.036 6.95579 202.695 7.63938 203.121 8.52491L203.406 8.388L203.69 8.25109C203.204 7.24062 202.448 6.46021 201.431 5.9138L201.282 6.192ZM203.406 8.388L203.123 8.52925C203.565 9.41294 203.792 10.4666 203.792 11.7H204.108H204.424C204.424 10.3894 204.182 9.23506 203.688 8.24675L203.406 8.388ZM204.108 11.7H203.792C203.792 12.9332 203.565 13.9936 203.123 14.8902L203.406 15.03L203.689 15.1698C204.182 14.1704 204.424 13.0108 204.424 11.7H204.108ZM203.406 15.03L203.122 14.8917C202.695 15.767 202.04 16.4521 201.146 16.9501L201.3 17.226L201.453 17.5019C202.455 16.9439 203.204 16.165 203.69 15.1683L203.406 15.03ZM201.3 17.226L201.149 16.9486C200.261 17.4318 199.105 17.6842 197.664 17.6842V18V18.3158C199.174 18.3158 200.443 18.0522 201.451 17.5034L201.3 17.226ZM197.664 18V17.6842H193.452V18V18.3158H197.664V18ZM195.882 15.912V16.2278H197.538V15.912V15.5962H195.882V15.912ZM197.538 15.912V16.2278C198.598 16.2278 199.47 16.0562 200.124 15.6822L199.968 15.408L199.811 15.1338C199.289 15.4318 198.541 15.5962 197.538 15.5962V15.912ZM199.968 15.408L200.122 15.6836C200.783 15.3133 201.259 14.7785 201.539 14.0863L201.246 13.968L200.953 13.8497C200.728 14.4055 200.352 14.8307 199.813 15.1324L199.968 15.408ZM201.246 13.968L201.539 14.0843C201.81 13.4025 201.94 12.6052 201.94 11.7H201.624H201.308C201.308 12.5468 201.186 13.2615 200.952 13.8517L201.246 13.968ZM201.624 11.7H201.94C201.94 10.7837 201.81 9.98522 201.539 9.31373L201.246 9.432L200.953 9.55027C201.186 10.1268 201.308 10.8403 201.308 11.7H201.624ZM201.246 9.432L201.539 9.31566C201.26 8.61176 200.785 8.06971 200.122 7.69843L199.968 7.974L199.813 8.24957C200.35 8.55029 200.727 8.98024 200.952 9.54834L201.246 9.432ZM199.968 7.974L200.124 7.69978C199.47 7.32584 198.598 7.15416 197.538 7.15416V7.47V7.78584C198.541 7.78584 199.289 7.95016 199.811 8.24822L199.968 7.974ZM197.538 7.47V7.15416H195.882V7.47V7.78584H197.538V7.47ZM195.882 7.47H195.566V15.912H195.882H196.198V7.47H195.882Z" fill="#42389E" mask="url(#path-7-outside-1_1492_86405)"/>
<path d="M90.828 37.0371V28.6371H96.3V29.9451H92.448V32.1891H95.532V33.4611H92.448V37.0371H90.828ZM106.268 37.1811C105.652 37.1811 105.092 37.0571 104.588 36.8091C104.084 36.5611 103.684 36.1891 103.388 35.6931C103.092 35.1971 102.944 34.5651 102.944 33.7971V28.6371H104.564V33.8091C104.564 34.2251 104.632 34.5771 104.768 34.8651C104.904 35.1451 105.1 35.3531 105.356 35.4891C105.62 35.6251 105.932 35.6931 106.292 35.6931C106.66 35.6931 106.972 35.6251 107.228 35.4891C107.492 35.3531 107.692 35.1451 107.828 34.8651C107.964 34.5771 108.032 34.2251 108.032 33.8091V28.6371H109.652V33.7971C109.652 34.5651 109.5 35.1971 109.196 35.6931C108.892 36.1891 108.48 36.5611 107.96 36.8091C107.448 37.0571 106.884 37.1811 106.268 37.1811ZM116.751 37.0371V28.6371H118.371L122.235 34.4331V28.6371H123.855V37.0371H122.235L118.371 31.2531V37.0371H116.751ZM134.781 37.1811C133.941 37.1811 133.217 37.0011 132.609 36.6411C132.009 36.2731 131.545 35.7651 131.217 35.1171C130.897 34.4611 130.737 33.7051 130.737 32.8491C130.737 31.9931 130.897 31.2371 131.217 30.5811C131.545 29.9251 132.009 29.4131 132.609 29.0451C133.217 28.6771 133.941 28.4931 134.781 28.4931C135.797 28.4931 136.629 28.7451 137.277 29.2491C137.925 29.7531 138.329 30.4651 138.489 31.3851H136.725C136.621 30.9371 136.401 30.5891 136.065 30.3411C135.737 30.0851 135.305 29.9571 134.769 29.9571C134.273 29.9571 133.845 30.0771 133.485 30.3171C133.133 30.5491 132.861 30.8811 132.669 31.3131C132.477 31.7371 132.381 32.2491 132.381 32.8491C132.381 33.4411 132.477 33.9531 132.669 34.3851C132.861 34.8171 133.133 35.1491 133.485 35.3811C133.845 35.6131 134.273 35.7291 134.769 35.7291C135.305 35.7291 135.737 35.6131 136.065 35.3811C136.393 35.1411 136.609 34.8091 136.713 34.3851H138.489C138.329 35.2571 137.925 35.9411 137.277 36.4371C136.629 36.9331 135.797 37.1811 134.781 37.1811ZM147.266 37.0371V29.9451H144.806V28.6371H151.322V29.9451H148.874V37.0371H147.266ZM157.99 37.0371V28.6371H159.61V37.0371H157.99ZM170.656 37.1811C169.84 37.1811 169.12 36.9971 168.496 36.6291C167.872 36.2611 167.384 35.7531 167.032 35.1051C166.68 34.4491 166.504 33.6931 166.504 32.8371C166.504 31.9811 166.68 31.2291 167.032 30.5811C167.384 29.9251 167.872 29.4131 168.496 29.0451C169.12 28.6771 169.84 28.4931 170.656 28.4931C171.48 28.4931 172.204 28.6771 172.828 29.0451C173.452 29.4131 173.936 29.9251 174.28 30.5811C174.632 31.2291 174.808 31.9811 174.808 32.8371C174.808 33.6931 174.632 34.4491 174.28 35.1051C173.936 35.7531 173.452 36.2611 172.828 36.6291C172.204 36.9971 171.48 37.1811 170.656 37.1811ZM170.656 35.7291C171.168 35.7291 171.608 35.6131 171.976 35.3811C172.352 35.1411 172.644 34.8051 172.852 34.3731C173.06 33.9411 173.164 33.4291 173.164 32.8371C173.164 32.2371 173.06 31.7251 172.852 31.3011C172.644 30.8691 172.352 30.5371 171.976 30.3051C171.608 30.0731 171.168 29.9571 170.656 29.9571C170.152 29.9571 169.712 30.0731 169.336 30.3051C168.96 30.5371 168.668 30.8691 168.46 31.3011C168.252 31.7251 168.148 32.2371 168.148 32.8371C168.148 33.4291 168.252 33.9411 168.46 34.3731C168.668 34.8051 168.96 35.1411 169.336 35.3811C169.712 35.6131 170.152 35.7291 170.656 35.7291ZM181.71 37.0371V28.6371H183.33L187.194 34.4331V28.6371H188.814V37.0371H187.194L183.33 31.2531V37.0371H181.71ZM198.864 37.1811C198.256 37.1811 197.712 37.0771 197.232 36.8691C196.76 36.6611 196.384 36.3571 196.104 35.9571C195.832 35.5571 195.692 35.0731 195.684 34.5051H197.4C197.408 34.7531 197.472 34.9771 197.592 35.1771C197.712 35.3771 197.876 35.5371 198.084 35.6571C198.3 35.7691 198.556 35.8251 198.852 35.8251C199.108 35.8251 199.328 35.7851 199.512 35.7051C199.704 35.6171 199.852 35.4971 199.956 35.3451C200.06 35.1931 200.112 35.0131 200.112 34.8051C200.112 34.5651 200.052 34.3651 199.932 34.2051C199.82 34.0451 199.66 33.9091 199.452 33.7971C199.252 33.6851 199.016 33.5851 198.744 33.4971C198.48 33.4011 198.2 33.3011 197.904 33.1971C197.24 32.9811 196.732 32.6931 196.38 32.3331C196.036 31.9731 195.864 31.4971 195.864 30.9051C195.864 30.4011 195.984 29.9691 196.224 29.6091C196.472 29.2491 196.812 28.9731 197.244 28.7811C197.676 28.5891 198.168 28.4931 198.72 28.4931C199.288 28.4931 199.784 28.5931 200.208 28.7931C200.64 28.9851 200.98 29.2651 201.228 29.6331C201.484 30.0011 201.616 30.4331 201.624 30.9291H199.896C199.888 30.7451 199.832 30.5731 199.728 30.4131C199.632 30.2451 199.496 30.1131 199.32 30.0171C199.144 29.9131 198.936 29.8611 198.696 29.8611C198.488 29.8531 198.296 29.8851 198.12 29.9571C197.952 30.0291 197.816 30.1371 197.712 30.2811C197.616 30.4171 197.568 30.5891 197.568 30.7971C197.568 30.9971 197.616 31.1651 197.712 31.3011C197.816 31.4371 197.956 31.5571 198.132 31.6611C198.308 31.7571 198.516 31.8491 198.756 31.9371C198.996 32.0171 199.256 32.1011 199.536 32.1891C199.952 32.3331 200.336 32.5051 200.688 32.7051C201.04 32.8971 201.32 33.1491 201.528 33.4611C201.736 33.7731 201.84 34.1851 201.84 34.6971C201.84 35.1371 201.724 35.5451 201.492 35.9211C201.26 36.2971 200.924 36.6011 200.484 36.8331C200.052 37.0651 199.512 37.1811 198.864 37.1811Z" fill="#42389E"/>
</svg>
